<svg
  xmlns="http://www.w3.org/2000/svg"
  fill="none"
  viewBox="0 0 174 29"
>
  <defs />
  <path
    fill="#00171F"
    d="M17.5781 2.08105c0-.51757.1465-.8789.4395-1.08398.2929-.21484.7763-.32227 1.4502-.32227.2441 0 .4492.02442.6152.07325.1758.03906.3223.11718.4395.23437.1269.11719.2246.27344.2929.46875.0782.18555.1416.42481.1905.71778.1171.9082.2441 1.8457.3808 2.8125.1465.96679.2979 1.93847.4541 2.91503.0586.43946.2881.65918.6885.65918.1074 0 .2832-.00976.5273-.02929.2539-.0293.5518-.0586.8936-.08789.3418-.03907.708-.07813 1.0986-.11719a53.1958 53.1958 0 011.1866-.10254c.4003-.03906.7763-.06836 1.1279-.08789.3613-.0293.6787-.04395.9521-.04395.2149 0 .3858.04395.5127.13184.127.07813.2246.18555.293.32227.0781.12695.1269.27343.1465.43945.0293.15625.0439.31738.0439.4834 0 .14648-.0293.29785-.0879.4541-.0488.15623-.122.29783-.2197.42483-.0879.1172-.2002.2148-.3369.2929-.1367.0782-.293.1172-.4688.1172-.8496 0-1.7089.0293-2.5781.0879a57.2093 57.2093 0 00-2.5781.2051c-.4395.0586-.6592.2783-.6592.6592 0 .0293.0049.0683.0147.1172.0097.039.0146.0732.0146.1025.1172.8496.2246 1.6455.3223 2.3877.1074.7422.1953 1.4063.2636 1.9922.0782.5762.1368 1.0596.1758 1.4502.0489.3808.0733.6347.0733.7617 0 .3516-.0342.6445-.1026.8789-.0683.2441-.1806.4395-.3369.5859-.1562.1563-.3662.2637-.6299.3223-.2539.0684-.5761.1025-.9668.1025-.3711 0-.6445-.0878-.8203-.2636-.1758-.1758-.2734-.4444-.2929-.8057-.0586-1.1523-.1514-2.3096-.2784-3.4717a103.74284 103.74284 0 00-.4394-3.5009c-.0879-.42-.3076-.6299-.6592-.6299-.0293 0-.0635.0049-.1025.0146-.0391.0098-.0733.0147-.1026.0147-.6054.1367-1.1767.2734-1.7138.4101-.5372.1367-1.0401.2832-1.5088.4395-.2637.0879-.4981.1513-.7032.1904-.205.0293-.3906.044-.5566.044-.2246 0-.3906-.0977-.498-.293-.1075-.2051-.1612-.459-.1612-.7617 0-.1075.0098-.2295.0293-.3662.0196-.1465.0586-.2881.1172-.4248.0488-.1465.127-.2784.2344-.3956.0976-.1269.2344-.2294.4101-.3076.4102-.166.9571-.33689 1.6407-.51267.6836-.18554 1.455-.35644 2.3144-.51269.1953-.04883.3467-.12696.4541-.23438.1172-.11718.1758-.28808.1758-.51269v-.14649c0-.05859-.0098-.11718-.0293-.17578-.1562-.89844-.3076-1.71387-.4541-2.44629-.1367-.74219-.2588-1.37695-.3662-1.90429-.0977-.52735-.1758-.94239-.2344-1.24512-.0586-.30274-.0879-.47852-.0879-.52735z"
  />
  <path
    fill="#00171F"
    d="M27.7523 14.1367c0-.166.0196-.3515.0586-.5566.0391-.2051.0586-.4297.0586-.6739 0-.166-.0732-.2929-.2197-.3808-.1367-.0879-.293-.1856-.4687-.293-.1758-.1074-.337-.2441-.4834-.4101-.1368-.1661-.2051-.4053-.2051-.7178 0-.2246.0586-.4492.1758-.6738.1269-.2246.3076-.4297.542-.61527.5761-.42969 1.1718-.81543 1.7871-1.15723.625-.34179 1.2451-.62988 1.8603-.86425.625-.23438 1.2402-.41504 1.8457-.542.6055-.12695 1.1865-.19043 1.7432-.19043.9375 0 1.8164.17578 2.6367.52735.8301.34179 1.5478.81543 2.1533 1.4209.6153.5957 1.0987 1.29883 1.4502 2.10933.3613.8008.542 1.6602.542 2.5782 0 .8984-.1904 1.7529-.5713 2.5634-.3711.8008-.874 1.5039-1.5088 2.1094-.6347.6055-1.3818 1.084-2.2412 1.4356-.8496.3613-1.748.542-2.6953.542-.9277 0-1.7871-.1563-2.5781-.4688-.791-.3125-1.4746-.7422-2.0508-1.2891-.5762-.5566-1.0254-1.2109-1.3477-1.9628-.3222-.7618-.4834-1.5918-.4834-2.4903zm6.7823 3.5742c.4101 0 .8349-.083 1.2744-.249.4394-.166.8398-.4053 1.2012-.7178.371-.3222.6738-.7129.9082-1.1718.2441-.459.3662-.9766.3662-1.5528 0-.5859-.1075-1.1328-.3223-1.6406s-.5127-.9473-.8936-1.3184c-.371-.3808-.8154-.6787-1.333-.8935-.5078-.21485-1.0595-.32227-1.6552-.32227-1.084 0-1.9141.28317-2.4903.84957-.5761.5567-.8642 1.4161-.8642 2.5782 0 .6347.0928 1.2255.2783 1.7724.1953.5371.4639 1.0059.8057 1.4063.3418.3906.7421.6982 1.2011.9228.4688.2246.9766.3369 1.5235.3369zM43.5516 19.6299c-.0684-1.2988-.1807-2.4951-.337-3.5889-.1464-1.1035-.3027-2.0654-.4687-2.8857-.1563-.8203-.2979-1.4844-.4248-1.9922-.1172-.5078-.1758-.8252-.1758-.9522 0-.1855.0684-.36617.2051-.54195.1465-.17579.3271-.32715.542-.45411.2148-.13672.4443-.24414.6885-.32226.2539-.07813.4834-.11719.6884-.11719.1661 0 .3077.0293.4248.08789.127.0586.2149.15625.2637.29297.0488.16602.0928.3418.1318.52734.0489.17579.0977.39061.1465.64451.0586.3614.1368.542.2344.542.1074 0 .2295-.1611.3662-.4834.1953-.4492.4053-.82029.6299-1.11326.2246-.29297.4639-.52246.7178-.68848.2636-.17578.5322-.29785.8056-.36621.2832-.06836.5762-.10254.8789-.10254.918 0 1.6944.36133 2.3291 1.08399.6446.72265 1.1475 1.7676 1.5088 3.1348.0489.1562.0928.2588.1319.3076.039.039.083.0586.1318.0586.0488 0 .0977-.0196.1465-.0586.0586-.0488.1123-.1416.1611-.2783.2344-.6348.5078-1.1719.8203-1.6114.3125-.4492.6348-.81052.9668-1.08395.3418-.28321.6885-.48829 1.0401-.61524.3515-.12695.6885-.19043 1.0107-.19043.5957 0 1.1328.21973 1.6113.65918.4883.42969.918 1.09864 1.2891 2.00684.3809.8984.708 2.041.9815 3.4277.2832 1.377.5175 3.0127.7031 4.9073 0 .5273-.1612.8935-.4834 1.0986-.3223.2148-.7617.3223-1.3184.3223-.3613 0-.6445-.0782-.8496-.2344-.2051-.1563-.3223-.3613-.3516-.6153-.1269-1.3574-.2685-2.5634-.4248-3.6181-.1464-1.0645-.3076-1.958-.4834-2.6807-.1757-.7324-.371-1.289-.5859-1.6699-.2051-.3809-.4346-.5713-.6885-.5713-.1269 0-.2881.0928-.4834.2783-.1855.1856-.3857.5274-.6006 1.0254-.2148.4883-.4394 1.1621-.6738 2.0215-.2344.8496-.459 1.9385-.6738 3.2666-.0586.3711-.2393.6543-.542.8496-.293.1953-.6543.293-1.084.293-.498 0-.8447-.0781-1.04-.2344-.1856-.1562-.2881-.4199-.3076-.791a20.98322 20.98322 0 00-.2051-1.919c-.0879-.6445-.2002-1.2548-.3369-1.831-.1368-.5859-.2881-1.1231-.4541-1.6113-.1661-.4981-.3418-.9278-.5274-1.2891-.1855-.3711-.376-.6592-.5713-.8643-.1953-.205-.3857-.3076-.5713-.3076-.2441 0-.4834.1709-.7177.5127-.2246.3418-.4297.8252-.6153 1.4502-.1757.625-.3173 1.377-.4248 2.2559-.1074.8789-.1611 1.8603-.1611 2.9443 0 .1856.0049.3711.0146.5567.0098.1757.0147.3613.0147.5566 0 .293-.0488.5322-.1465.7178-.0879.1855-.2197.332-.3955.4394-.166.1074-.3613.1807-.5859.2197-.2246.0391-.4688.0586-.7325.0586-.2441 0-.4394-.0195-.5859-.0586-.1465-.0293-.2588-.0781-.3369-.1464-.0781-.0684-.1318-.1612-.1611-.2784-.0293-.1074-.0489-.2343-.0586-.3808zM70.3957 7.57422c.4688 0 .9131.03906 1.333.11719.4199.06836.8008.14648 1.1426.23437.3418.07813.6348.15625.8789.23438.2441.06836.4199.10254.5273.10254.0879 0 .1709-.04395.2491-.13184.0781-.09766.1757-.2002.2929-.30762.1172-.10742.2735-.20508.4688-.29297.1953-.09765.4541-.14648.7764-.14648.371 0 .664.09766.8789.29297.2148.18554.3222.41992.3222.70312 0 3.57422-.122 6.61132-.3662 9.11132-.2441 2.4902-.6396 4.5166-1.1865 6.0791-.5469 1.5625-1.2549 2.6953-2.124 3.3985-.8692.7031-1.9239 1.0546-3.1641 1.0546-.5664 0-1.1572-.1269-1.7725-.3808-.6054-.2539-1.1621-.5811-1.6699-.9815-.5078-.3906-.9277-.8252-1.2597-1.3037-.3223-.4785-.4834-.9375-.4834-1.3769 0-.1465.0781-.3174.2343-.5127.1563-.1953.3467-.3858.5713-.5713.2246-.1856.459-.3418.7031-.4688.2442-.1269.4541-.1904.6299-.1904.1856 0 .3418.0732.4688.2197.1269.1563.2441.3467.3515.5713.1172.2246.2344.4688.3516.7324.1172.2735.2637.5225.4395.7471.1757.2246.3906.4102.6445.5567.2539.1562.5713.2343.9521.2343 2.1289 0 3.3789-3.2519 3.75-9.7558 0-.293-.083-.4395-.249-.4395-.1367 0-.2441.0684-.3223.2051-.9179 1.2402-1.9921 2.1728-3.2226 2.7978-1.2207.6153-2.5781.9229-4.0723.9229-.6933 0-1.333-.1025-1.9189-.3076-.586-.2149-1.0938-.5078-1.5235-.8789-.4199-.3809-.747-.8301-.9814-1.3477-.2344-.5273-.3516-1.1035-.3516-1.7285 0-.6152.1075-1.2207.3223-1.8164.2246-.6055.5322-1.1719.9228-1.6992.4004-.5371.8741-1.0303 1.4209-1.47952.5469-.44921 1.1426-.83496 1.7872-1.15722.6445-.33203 1.3232-.58594 2.0361-.76172.7226-.18555 1.46-.27832 2.2119-.27832zM66.924 16.334c1.3379 0 2.5635-.4199 3.6768-1.2598 1.1133-.8496 2.0654-2.0801 2.8564-3.6914.0196-.0586.0342-.1025.044-.1318.0097-.0391.0146-.0781.0146-.1172 0-.0977-.1025-.2002-.3076-.3076s-.4736-.2002-.8057-.2783c-.332-.0782-.7128-.1417-1.1425-.1905-.42-.0586-.8448-.0879-1.2745-.0879-.6933 0-1.3623.1172-2.0068.3516-.6445.2344-1.2158.5469-1.7139.9375-.498.3906-.8984.835-1.2011 1.333-.3028.498-.4541 1.0156-.4541 1.5527 0 .5762.2099 1.0352.6299 1.377.4296.3418.9912.5127 1.6845.5127zM79.0172 14.1367c0-.166.0195-.3515.0586-.5566.039-.2051.0586-.4297.0586-.6739 0-.166-.0733-.2929-.2198-.3808-.1367-.0879-.2929-.1856-.4687-.293s-.3369-.2441-.4834-.4101c-.1367-.1661-.2051-.4053-.2051-.7178 0-.2246.0586-.4492.1758-.6738.127-.2246.3076-.4297.542-.61527.5762-.42969 1.1719-.81543 1.7871-1.15723.625-.34179 1.2451-.62988 1.8604-.86425.625-.23438 1.2402-.41504 1.8457-.542.6054-.12695 1.1865-.19043 1.7431-.19043.9375 0 1.8164.17578 2.6367.52735.8301.34179 1.5479.81543 2.1534 1.4209.6152.5957 1.0986 1.29883 1.4502 2.10933.3613.8008.542 1.6602.542 2.5782 0 .8984-.1905 1.7529-.5713 2.5634-.3711.8008-.8741 1.5039-1.5088 2.1094-.6348.6055-1.3819 1.084-2.2412 1.4356-.8496.3613-1.7481.542-2.6954.542-.9277 0-1.7871-.1563-2.5781-.4688-.791-.3125-1.4746-.7422-2.0508-1.2891-.5761-.5566-1.0253-1.2109-1.3476-1.9628-.3223-.7618-.4834-1.5918-.4834-2.4903zm6.7822 3.5742c.4102 0 .835-.083 1.2744-.249.4395-.166.8399-.4053 1.2012-.7178.3711-.3222.6738-.7129.9082-1.1718.2441-.459.3662-.9766.3662-1.5528 0-.5859-.1074-1.1328-.3223-1.6406-.2148-.5078-.5126-.9473-.8935-1.3184-.3711-.3808-.8154-.6787-1.333-.8935-.5078-.21485-1.0596-.32227-1.6553-.32227-1.084 0-1.914.28317-2.4902.84957-.5762.5567-.8643 1.4161-.8643 2.5782 0 .6347.0928 1.2255.2783 1.7724.1954.5371.4639 1.0059.8057 1.4063.3418.3906.7422.6982 1.2012.9228.4687.2246.9765.3369 1.5234.3369zM93.7031 14.1367c0-.166.0196-.3515.0586-.5566.0391-.2051.0586-.4297.0586-.6739 0-.166-.0732-.2929-.2197-.3808-.1367-.0879-.293-.1856-.4688-.293-.1757-.1074-.3369-.2441-.4834-.4101-.1367-.1661-.205-.4053-.205-.7178 0-.2246.0586-.4492.1757-.6738.127-.2246.3077-.4297.542-.61527C93.7373 9.38574 94.333 9 94.9482 8.6582c.625-.34179 1.2452-.62988 1.8604-.86425.625-.23438 1.2402-.41504 1.8457-.542.6055-.12695 1.1865-.19043 1.7427-.19043.938 0 1.817.17578 2.637.52735.83.34179 1.548.81543 2.154 1.4209.615.5957 1.098 1.29883 1.45 2.10933.361.8008.542 1.6602.542 2.5782 0 .8984-.191 1.7529-.572 2.5634-.371.8008-.874 1.5039-1.508 2.1094-.635.6055-1.382 1.084-2.242 1.4356-.849.3613-1.748.542-2.695.542-.9276 0-1.787-.1563-2.578-.4688-.7911-.3125-1.4746-.7422-2.0508-1.2891-.5762-.5566-1.0254-1.2109-1.3477-1.9628-.3222-.7618-.4834-1.5918-.4834-2.4903zm6.7819 3.5742c.411 0 .835-.083 1.275-.249.439-.166.84-.4053 1.201-.7178.371-.3222.674-.7129.908-1.1718.244-.459.366-.9766.366-1.5528 0-.5859-.107-1.1328-.322-1.6406-.215-.5078-.513-.9473-.893-1.3184-.372-.3808-.816-.6787-1.333-.8935-.508-.21485-1.06-.32227-1.656-.32227-1.0837 0-1.9138.28317-2.49.84957-.5762.5567-.8642 1.4161-.8642 2.5782 0 .6347.0927 1.2255.2783 1.7724.1953.5371.4638 1.0059.8056 1.4063.3418.3906.7422.6982 1.2012.9228.4688.2246.9766.3369 1.5231.3369zM117.998 8.29199c.039.01953.098.0293.176.0293.215 0 .322-.1416.322-.42481V3.34082c0-.57617.127-.98633.381-1.23047.264-.24414.699-.36621 1.304-.36621.615 0 1.05.12695 1.304.38086.254.25391.381.68848.381 1.30371 0 .23438-.015.58106-.044 1.04004-.03.44922-.064.96191-.103 1.53809-.029.57617-.058 1.19628-.088 1.86035-.029.65429-.044 1.30371-.044 1.94824 0 .99607.069 1.85547.205 2.57817.137.7226.332 1.3232.586 1.8017.254.4688.557.8203.909 1.0547.351.2246.747.3369 1.186.3369.244 0 .464-.0293.659-.0879.205-.0683.445-.1025.718-.1025.195 0 .356.1025.483.3076.137.1953.205.4346.205.7178 0 .2539-.078.4931-.234.7177-.146.2247-.351.42-.615.586-.254.166-.552.2978-.894.3955-.341.0879-.698.1318-1.069.1318-.801 0-1.533-.2441-2.197-.7324-.664-.498-1.162-1.2549-1.494-2.2705-.03-.1562-.079-.2344-.147-.2344-.078 0-.142.0782-.19.2344-.264.7129-.611 1.3574-1.04 1.9336-.42.5664-.913 1.0547-1.48 1.4648-.557.4004-1.172.708-1.846.9229-.664.2148-1.367.3223-2.109.3223-.781 0-1.499-.1319-2.153-.3956-.645-.2539-1.201-.6103-1.67-1.0693-.469-.4687-.835-1.0156-1.099-1.6406-.264-.6348-.395-1.3184-.395-2.0508 0-.9375.195-1.8213.586-2.6514.39-.83.918-1.5527 1.582-2.16793.673-.625 1.455-1.11817 2.343-1.47949.889-.36133 1.836-.542 2.842-.542.41 0 .845.03418 1.304.10254.459.0586.937.15625 1.435.29297zm-4.204 8.96481c.557 0 1.05-.122 1.48-.3662.439-.2441.825-.5517 1.157-.9228.342-.3809.63-.7959.864-1.2451.235-.459.425-.9034.572-1.3331.146-.4296.254-.8154.322-1.1572s.102-.5859.102-.7324c0-.1074-.029-.2002-.087-.2783-.059-.0879-.147-.1563-.264-.2051-.264-.0684-.537-.127-.82-.1758-.284-.0586-.562-.1074-.835-.1465-.274-.039-.538-.0683-.791-.0879-.245-.0195-.469-.0293-.674-.0293-.586 0-1.118.0879-1.597.2637-.478.1758-.889.4248-1.23.7471-.332.3223-.591.708-.777 1.1572-.185.4395-.278.9229-.278 1.4502 0 .4688.068.8936.205 1.2744.146.3711.342.6885.586.9522.254.2636.557.4687.908.6152.352.1465.737.2197 1.157.2197z"
  />
  <path
    fill="#00171F"
    d="M137.343 15.792c.283-.2441.561-.3662.835-.3662.156 0 .297.039.424.1172.127.0781.269.2002.425.3662.147.2246.249.4101.308.5566.068.1367.102.2735.102.4102 0 .2929-.146.5713-.439.8349-.469.3907-.977.7422-1.524 1.0547-.546.3028-1.118.5615-1.713.7764-.596.2148-1.211.376-1.846.4834-.635.1172-1.265.1758-1.89.1758-.791 0-1.533-.1026-2.226-.3076-.694-.1954-1.314-.4786-1.861-.8497-.537-.371-.991-.8154-1.362-1.333-.371-.5273-.635-1.1181-.791-1.7724-.088-.2735-.171-.4492-.249-.5274-.068-.0879-.186-.1318-.352-.1318-.361 0-.639-.0879-.835-.2637-.195-.1758-.293-.4297-.293-.7617 0-.1367.01-.2246.03-.2637l.029-.2929c.049-.3516.142-.6055.278-.7618.147-.1562.371-.2343.674-.2343h.22c.41 0 .698-.1905.864-.5713.303-.6738.689-1.2891 1.157-1.8457.469-.55666.996-1.03029 1.582-1.42092.586-.40039 1.211-.70801 1.875-.92285.674-.22461 1.358-.33691 2.051-.33691.723 0 1.397.10742 2.022.32226.634.20508 1.186.49317 1.655.86426.469.37109.835.80566 1.099 1.30376.273.498.41 1.0351.41 1.6113 0 .4004-.078.7666-.235 1.0986-.156.332-.38.625-.673.8789-.293.2442-.65.4444-1.07.6006-.41.1563-.879.2588-1.406.3076l-5.083.5127c-.195 0-.356.0488-.483.1465-.118.0977-.176.2295-.176.3955 0 .2539.093.4981.278.7324.195.2344.449.4444.762.6299.322.1758.688.3174 1.098.4248.42.1074.85.1612 1.29.1612.419 0 .849-.0391 1.289-.1172.449-.0879.888-.21 1.318-.3662.439-.1563.864-.3418 1.274-.5567.411-.2246.796-.4785 1.158-.7617zm-3.267-3.7793c.146-.0293.273-.0977.381-.2051.107-.1172.161-.2588.161-.4248 0-.1465-.054-.2832-.161-.4101-.108-.127-.254-.2393-.44-.337-.185-.1074-.4-.1904-.644-.249-.244-.0586-.503-.0879-.777-.0879-.4 0-.81.0586-1.23.1758-.42.1172-.801.2734-1.143.4688-.341.1855-.62.3955-.835.6298-.214.2247-.322.4493-.322.6739 0 .2246.137.3369.41.3369.166 0 .435-.0195.806-.0586.371-.0391.781-.083 1.23-.1318.45-.0586.904-.1221 1.363-.1905.459-.0683.859-.1318 1.201-.1904zM139.724 7.17871c0-.14648.063-.28809.19-.4248.127-.14649.293-.27344.498-.38086.205-.11719.435-.20996.689-.27832.263-.07813.527-.11719.791-.11719.146 0 .268.03906.366.11719.107.07812.2.22949.278.4541.078.21484.147.52246.205.92285.069.39062.132.90332.191 1.53809.039.19531.073.34668.102.4541.039.09765.088.14648.147.14648.088 0 .176-.15137.264-.4541.712-2.06055 1.743-3.09082 3.09-3.09082.625 0 1.192.19531 1.7.58594.517.39062.996 1.03027 1.435 1.91894.449.87891.874 2.04099 1.275 3.48629.4 1.4356.8 3.208 1.201 5.3174.019.1074.034.2051.044.293.009.0879.014.1709.014.249 0 .2246-.053.4199-.161.586-.097.1562-.229.288-.395.3955-.166.0976-.352.1709-.557.2197-.205.0586-.41.0879-.615.0879-.41 0-.708-.044-.894-.1319-.176-.0878-.288-.2539-.337-.498-.283-1.4844-.561-2.8027-.835-3.9551-.263-1.1523-.527-2.1191-.791-2.9004-.254-.791-.507-1.3916-.761-1.80173-.254-.41016-.508-.61524-.762-.61524s-.493.16114-.718.4834c-.215.31247-.425.80567-.63 1.47947-.205.6739-.405 1.5283-.6 2.5635-.186 1.0352-.367 2.2705-.542 3.7061-.049.3906-.244.7031-.586.9375-.342.2343-.777.3515-1.304.3515-.352 0-.62-.0732-.806-.2197-.185-.1465-.288-.3467-.307-.6006-.088-2.0312-.186-3.7012-.293-5.0098-.098-1.3183-.191-2.373-.279-3.16402-.087-.80078-.161-1.39649-.219-1.78711-.059-.39063-.088-.67871-.088-.86426zM5.90332 5.74316c.18555-.18554.37598-.27832.57129-.27832.20508 0 .38574.07325.54199.21973l.82031.60059c.21485.18554.32227.37597.32227.57129 0 .17578-.08789.35156-.26367.52734-.30274.3125-.62989.6543-.98145 1.02539-.35156.37109-.69824.76172-1.04004 1.17187-.34179.41016-.66406.82515-.96679 1.24515-.30274.4199-.55664.8349-.76172 1.2451-.08789.1269-.13184.2685-.13184.4248 0 .1855.09278.3809.27832.5859.19531.1953.44434.3955.74707.6006.30274.2051.64453.4102 1.02539.6153.39063.1953.78125.3808 1.17188.5566.39062.1758.7666.3369 1.12793.4834.36133.1367.67383.249.9375.3369.34179.127.51269.3174.51269.5713 0 .0977-.05371.2588-.16113.4834-.09766.2246-.22949.4541-.39551.6885-.15625.2246-.32715.4248-.51269.6006-.18555.1757-.36133.2636-.52735.2636h-.16113c-.04883-.0097-.10254-.0293-.16113-.0586-.52735-.1855-1.05469-.3955-1.58203-.6298a31.83113 31.83113 0 01-1.53809-.7471c-.35156-.1856-.75684-.3955-1.21582-.6299-.45898-.2441-.88867-.5176-1.28906-.8203-.40039-.3125-.74219-.6494-1.02539-1.0108-.27344-.3711-.41016-.7714-.41016-1.2011 0-.3418.07813-.7178.23438-1.128.16601-.4101.38086-.8349.64453-1.2744.27343-.4394.58105-.88376.92285-1.33298A46.16421 46.16421 0 013.7207 8.11621c.38086-.43945.75684-.85937 1.12793-1.25976.38086-.4004.73242-.77149 1.05469-1.11329zM161.984 4.71094c.098-.44922.381-.68848.85-.71778l1.377-.05859c.283.01953.474.09277.571.21973.098.12695.147.33203.147.61523-.518 3.03711-1.055 6.06937-1.612 9.09667-.556 3.0176-1.191 6.0352-1.904 9.0527-.059.254-.161.42-.308.4981-.146.0879-.341.1318-.585.1318l-1.319-.1465c-.215-.0195-.381-.0878-.498-.205-.107-.1075-.161-.2588-.161-.4541v-.1172c0-.0391.01-.083.029-.1319.44-2.041.825-3.8867 1.158-5.5371.341-1.6601.644-3.1933.908-4.5996.273-1.416.517-2.73924.732-3.9697.215-1.24024.42-2.46582.615-3.67676zM168.204 20.0039c-.176.1856-.367.2783-.572.2783-.185 0-.366-.0683-.542-.2051l-.805-.6005c-.215-.1954-.323-.3858-.323-.5713 0-.1856.088-.3662.264-.542.303-.3028.63-.6397.981-1.0108.352-.3808.699-.7763 1.04-1.1865.342-.4101.665-.8252.967-1.2451.303-.4199.557-.835.762-1.2451.049-.0781.078-.1514.088-.2197.019-.0684.029-.1319.029-.1905 0-.1855-.097-.3808-.293-.5859-.185-.2051-.429-.4102-.732-.6152-.303-.2051-.65-.4053-1.04-.6006-.381-.2051-.767-.3907-1.157-.5567-.391-.1758-.767-.332-1.128-.4687-.362-.1465-.669-.2637-.923-.3516-.342-.1367-.513-.32713-.513-.57128 0-.09765.049-.25878.147-.48339.107-.22461.239-.45411.395-.68848.156-.23437.327-.43945.513-.61523.195-.17579.376-.26368.542-.26368.049 0 .097.00489.146.01465.059 0 .117.01465.176.04395.527.18554 1.05.39551 1.567.62988.518.23438 1.036.48828 1.553.76172.352.17578.752.38574 1.201.62988.459.24414.889.51758 1.289.82028.401.3028.738.6397 1.011 1.0108.283.3613.425.7617.425 1.2011 0 .5176-.176 1.0987-.527 1.7432-.342.6445-.772 1.3037-1.29 1.9776-.507.6738-1.054 1.333-1.64 1.9775-.586.6445-1.123 1.2207-1.611 1.7285z"
  />
</svg>